# xmcd
#
# Track frame offsets:
#	150
#	10044
#	22750
#	32750
#	43345
#	54439
#	65504
#	76627
#	88816
#	99200
#	110784
#	122877
#	135776
#	146611
#	160787
#	171948
#	187333
#	198504
#	210616
#	221499
#	234091
#	246212
#	257249
#	274689
#	290622
#	309348
#	322746
#	332093
#	346355
#
# Disc length: 4773 seconds
#
# Revision: 0
# Processed by: cddbd v1.5.1PL2 Copyright (c) Steve Scherf et al.
# Submitted via: EasyCDDAExtractor 4.6.9.1
#
DISCID=9a12a31d
DTITLE=Wanda Jackson - Tears Will Be The Chaser For Your Wine - CD 5
DYEAR=1997
DGENRE=Country
TTITLE0=Who Shot John
TTITLE1=A Women Lives For Love
TTITLE2=Tell It To Your Lonely Walls
TTITLE3=Let Trouble Be You
TTITLE4=The Man You Could Have Been
TTITLE5=Stop The World
TTITLE6=Walk Though This World With  m
TTITLE7=Stand By Your Man
TTITLE8=It's Such A Pretty Wordl Today
TTITLE9=One Minute Past Eternity
TTITLE10=If It's All Over
TTITLE11=Why Don't We Love Like That An
TTITLE12=I'd Fight The Wopld
TTITLE13=You're The Only World I Know
TTITLE14=Break My Mind
TTITLE15=Love Of The Command People
TTITLE16=Hello Darling
TTITLE17=Wonder Could I Live There Anym
TTITLE18=I'm Gonna Walk Right Out Your
TTITLE19=What A Sunday
TTITLE20=I've Gotta Sing
TTITLE21=Fancy Satin Pillows
TTITLE22=Bridge Over Troubled Water
TTITLE23=Everything Is Beautifull
TTITLE24=Oh Happy Day
TTITLE25=One Hundred Children
TTITLE26=People Gotta Be Loving
TTITLE27=Battle Hymn Of The Republic
TTITLE28=He Gives Us All His Love
EXTD=
EXTT0=
EXTT1=
EXTT2=
EXTT3=
EXTT4=
EXTT5=
EXTT6=
EXTT7=
EXTT8=
EXTT9=
EXTT10=
EXTT11=
EXTT12=
EXTT13=
EXTT14=
EXTT15=
EXTT16=
EXTT17=
EXTT18=
EXTT19=
EXTT20=
EXTT21=
EXTT22=
EXTT23=
EXTT24=
EXTT25=
EXTT26=
EXTT27=
EXTT28=
PLAYORDER=
